# xmcd CD database file
#
# Track frame offsets:
#	150
#	20016
#	35794
#	54767
#	66980
#	84549
#	99487
#	116727
#	135893
#	150879
#	168941
#	187185
#	206003
#	223725
#	243013
#	261359
#	279705
#	300154
#	323308
#	336531
#
# Disc length: 4539 seconds
#
# Revision: 0
# Processed by: cddbd v1.5.2PL0 Copyright (c) Steve Scherf et al.
# Submitted via: CDex 1.50
#
DISCID=1611b914
DTITLE=Jamey Aebersold - Colume 113 - Vocal Standards Low Voice
DYEAR=2004
DGENRE=Jazz
TTITLE0=Body and Soul C
TTITLE1=When I Fall in Love Eb
TTITLE2=I Can't Get Started Bb
TTITLE3=I Could Write A Book Bb
TTITLE4=Embracable You F
TTITLE5=Love Is Here To Stay Eb
TTITLE6=I Only Have Eyes For You A
TTITLE7=I Didn't Know What Timle It Was F
TTITLE8=Dancing In Th Dark Eb
TTITLE9=I Thought About You C
TTITLE10=Someone To Watch Over Me C
TTITLE11=Where Or When Eb
TTITLE12=I Could Write A Book Bb
TTITLE13=Love is Here To Stay
TTITLE14=I Only Have Eyes For You
TTITLE15=I Didn't Know What Time It Was
TTITLE16=Dancing In The Dark
TTITLE17=I Thought About You
TTITLE18=Where Or When
TTITLE19=Tuning Notes
EXTD=YEAR: 2004
EXTT0=
EXTT1=
EXTT2=
EXTT3=
EXTT4=
EXTT5=
EXTT6=
EXTT7=
EXTT8=
EXTT9=
EXTT10=
EXTT11=
EXTT12=
EXTT13=
EXTT14=
EXTT15=
EXTT16=
EXTT17=
EXTT18=
EXTT19=
PLAYORDER=
